<?xml version="1.0" standalone="no"?>
<!DOCTYPE svg PUBLIC "-//W3C//DTD SVG 20010904//EN"
 "http://www.w3.org/TR/2001/REC-SVG-20010904/DTD/svg10.dtd">
<svg version="1.0" xmlns="http://www.w3.org/2000/svg"
 width="225.000000pt" height="225.000000pt" viewBox="0 0 225.000000 225.000000"
 preserveAspectRatio="xMidYMid meet">

<g transform="translate(0.000000,225.000000) scale(0.100000,-0.100000)"
fill="#000000" stroke="none">
<path d="M948 2234 c-424 -65 -782 -383 -903 -798 -56 -196 -56 -427 1 -622
150 -520 662 -865 1194 -806 260 29 472 128 658 306 188 180 299 392 337 643
27 179 12 354 -45 526 -60 179 -148 315 -294 455 -254 244 -597 351 -948 296z
m292 -84 c234 -29 426 -120 597 -283 424 -406 426 -1072 5 -1479 -92 -89 -175
-147 -286 -199 -272 -127 -590 -127 -862 0 -111 52 -194 110 -286 199 -419
405 -419 1069 0 1474 229 221 528 325 832 288z"/>
<path d="M1035 1816 c-119 -29 -213 -107 -268 -224 -29 -60 -32 -76 -31 -157
1 -120 26 -185 104 -269 l58 -62 -56 -29 c-81 -41 -208 -172 -249 -256 -38
-78 -63 -173 -63 -246 0 -69 7 -83 41 -83 34 0 49 23 49 77 2 216 217 452 440
482 153 20 296 -32 415 -153 98 -99 154 -219 155 -329 0 -54 15 -77 49 -77 34
0 41 14 41 83 0 75 -25 167 -66 250 -45 89 -162 209 -246 252 l-57 30 48 50
c63 65 87 107 107 186 54 212 -86 432 -304 478 -65 14 -102 13 -167 -3z m210
-110 c73 -34 110 -69 144 -138 55 -109 39 -242 -40 -332 -117 -133 -331 -133
-448 0 -97 110 -96 284 3 401 15 17 54 46 88 62 80 41 176 43 253 7z"/>
</g>
</svg>
